<svg width="631.382" height="67.243" viewBox="0 0 167.053 17.791" xmlns="http://www.w3.org/2000/svg">
  <path fill="currentColor" d="M39.626 100.147v7.97q0 4.222-2.19 6.457-2.168 2.212-6.886 2.212-2.71 0-5.013-.79-2.28-.79-4.064-2.054.43-1.4.7-2.687.271-1.287.407-2.822 2.325 1.874 4.29 2.596 1.964.723 3.747.723 1.852 0 2.642-.836.79-.835.813-2.867v-1.716q0-3.658-.203-6.186zm9.076 16.64q-3.86 0-5.69-1.762-1.806-1.783-1.806-4.673 0-2.823 1.807-4.584 1.828-1.76 5.69-1.76 2.596 0 4.334.857 1.761.836 2.597 2.28.835 1.423.835 3.207 0 2.912-1.942 4.673-1.919 1.761-5.825 1.761m.09-3.839q1.468 0 2.19-.7.723-.7.723-1.874 0-1.106-.722-1.806-.723-.722-2.19-.722t-2.145.7-.678 1.828q0 1.174.678 1.874.677.7 2.145.7m19.056-8.94q1.513 0 2.687.925 1.197.903 1.851 2.416.655 1.49.655 3.183 0 1.716-.655 3.161-.654 1.423-1.828 2.258t-2.642.835q-1.716 0-2.98-.722-1.265-.745-1.897-2.326l-.655 2.823H58.05q.136-4.245.136-8.783 0-4.583-.136-8.783h5.103l-.068 2.777q-.113 2.935-.113 5.238.61-1.535 1.852-2.258 1.264-.745 3.025-.745m-2.303 8.985q1.084 0 1.716-.722.632-.723.632-1.874 0-1.039-.7-1.67-.677-.656-1.693-.656-.52 0-1.084.249-.564.225-.97.767-.407.52-.407 1.31 0 1.4.632 2.01.633.586 1.874.586m26.8 3.568q.18-2.958.18-6.119 0-1.016-.519-1.58-.496-.587-1.332-.587-.767 0-1.332.677-.542.677-.542 1.964v-.022q0 3.996.113 5.667h-5.08q.136-3.32.136-6.119 0-.993-.497-1.58-.474-.587-1.22-.587-.79 0-1.331.677-.52.655-.61 1.806-.045 1.716-.045 2.438 0 1.536.09 3.365H74.96q.18-3.252.18-6.142t-.18-6.186q1.49.068 2.28.068.836 0 2.281-.068l.677 3.342q.52-1.83 1.648-2.687 1.13-.88 2.597-.88 1.761 0 2.867.97 1.13.971 1.4 2.529.52-1.603 1.739-2.551t2.777-.949q2.032 0 3.183 1.378 1.152 1.354 1.152 3.725v3.748q0 2.551.045 3.703zm19.236-5.645h-7.36q.18.994.88 1.626.723.61 2.033.61.948 0 1.783-.362.836-.384 1.332-1.061 1.513.745 4.02 1.603-.7 1.58-2.552 2.529-1.829.925-4.787.925-3.838 0-5.69-1.76-1.828-1.784-1.828-4.674 0-2.823 1.829-4.584t5.69-1.76q2.302 0 3.996.767 1.693.768 2.596 2.145.903 1.355.903 3.116 0 .587-.045.88zm-4.335-3.5q-1.128 0-1.85.43-.723.429-1.017 1.174h5.328q-.27-.723-.88-1.152-.61-.451-1.58-.451m20.704 3.5h-7.36q.18.994.88 1.626.723.61 2.033.61.948 0 1.783-.362.836-.384 1.332-1.061 1.513.745 4.02 1.603-.7 1.58-2.552 2.529-1.829.925-4.787.925-3.838 0-5.69-1.76-1.828-1.784-1.828-4.674 0-2.823 1.829-4.584t5.69-1.76q2.302 0 3.996.767 1.693.768 2.596 2.145.903 1.355.903 3.116 0 .587-.045.88zm-4.335-3.5q-1.128 0-1.851.43-.722.429-1.016 1.174h5.328q-.27-.723-.88-1.152-.61-.451-1.58-.451m13.999.159q.948-3.41 4.718-3.41.655 0 1.265.09l-.723 5.058q-1.625-.61-2.664-.61-1.287 0-1.896.768-.61.768-.61 2.055v-.023l-.023 1.49q0 1.603.09 3.568h-5.395q.18-3.252.18-6.142t-.18-6.186q1.49.068 2.28.068.835 0 2.28-.068zm23.729-3.364-5.6 5.102q2.868 4.064 5.352 7.248h-5.984l-1.151-1.852q-1.129-1.874-1.49-2.438l-1.874 1.716v2.574h-5.193q.18-4.29.18-8.693 0-4.425-.18-8.873h5.193v9.573q2.19-2.235 4.132-4.357zm14.698 8.602q0 .767.18 1.083.181.317.723.452l-.09 2.122q-.723.113-1.264.158-.52.045-1.4.045-1.942 0-2.574-.858-.632-.88-.632-2.235v-.564q-.655 1.851-1.92 2.754-1.241.903-3.183.903-2.258 0-3.41-.903-1.128-.903-1.128-2.686 0-1.468.97-2.303.972-.836 3.004-1.152-1.716-1.219-3.432-2.122 1.354-1.716 3.093-2.597 1.738-.903 4.222-.903 3.477 0 5.148 1.513 1.693 1.49 1.693 4.606zm-6.367-4.832q-1.151 0-2.032.384-.88.384-1.58 1.151 1.354-.158 3.386-.158.836 0 1.174-.203.339-.203.339-.52 0-.27-.339-.45-.338-.204-.948-.204m-2.37 5.012q1.264 0 2.28-.474 1.016-.497 1.4-1.287v-.587q-.542.271-1.197.43-.655.135-1.58.27l-.813.136q-1.265.248-1.265.858 0 .654 1.174.654m21.223-4.718q-2.078-.136-3.794-.204l-.022 2.394q0 1.219.52 1.919.541.677 1.896.677.519 0 .993-.09-.09.835-.09 1.693 0 .406.045 1.851-.993.181-1.67.226-.678.045-1.762.045-2.641 0-3.748-1.264-1.083-1.287-1.083-3.567l.022-3.816q-1.061.045-2.212.136v-3.997q1.174 0 1.986-.745t.971-1.783h6.141q-1.151 1.58-2.55 2.528h4.357z" transform="translate(-21.473 -98.995)"/>
</svg>
